<?xml version="1.0" standalone="no"?>
<!DOCTYPE svg PUBLIC "-//W3C//DTD SVG 20010904//EN"
 "http://www.w3.org/TR/2001/REC-SVG-20010904/DTD/svg10.dtd">
<svg version="1.0" xmlns="http://www.w3.org/2000/svg"
 width="1098.000000pt" height="1098.000000pt" viewBox="0 0 1098.000000 1098.000000"
 preserveAspectRatio="xMidYMid meet">
<metadata>
Created by potrace 1.11, written by Peter Selinger 2001-2013
</metadata>
<g transform="translate(0.000000,1098.000000) scale(0.100000,-0.100000)"
fill="#000000" stroke="none">
<path d="M6804 8798 c-3 -4 -9 -6 -13 -4 -10 7 -121 -20 -196 -46 -243 -84
-436 -257 -595 -529 -27 -47 -184 -294 -190 -299 -3 -3 -23 -34 -44 -70 -22
-36 -63 -101 -91 -145 -167 -260 -215 -337 -215 -346 0 -5 -3 -9 -7 -9 -5 0
-21 -25 -38 -55 -16 -30 -32 -55 -35 -55 -3 0 -14 -17 -25 -37 -11 -21 -22
-40 -25 -43 -3 -3 -55 -84 -115 -180 -60 -96 -112 -177 -115 -180 -3 -3 -12
-17 -20 -31 -12 -21 -149 -239 -210 -334 -20 -31 -142 -225 -155 -246 -11 -18
-53 -82 -96 -147 -16 -24 -29 -45 -29 -48 0 -3 -10 -20 -22 -37 -13 -17 -27
-40 -33 -49 -33 -59 -140 -224 -147 -226 -4 -2 -8 -8 -8 -13 0 -9 -38 -70
-115 -189 -39 -59 -146 -228 -170 -268 -5 -9 -24 -38 -42 -64 l-32 -49 -18 28
c-10 15 -20 30 -23 33 -3 3 -9 13 -15 23 -9 16 -75 118 -230 357 -34 52 -87
133 -117 180 -30 47 -98 151 -151 232 -52 80 -101 156 -107 169 -7 12 -17 28
-22 33 -10 13 -70 104 -166 256 -37 58 -70 107 -74 108 -5 2 -8 10 -8 18 0 8
-4 14 -10 14 -5 0 -10 7 -10 15 0 8 -4 15 -10 15 -5 0 -10 5 -10 10 0 6 -27
51 -60 100 -33 49 -60 94 -60 100 0 6 -6 13 -14 16 -8 3 -19 18 -24 32 -6 15
-17 36 -26 47 -9 11 -29 40 -45 65 -16 25 -56 87 -90 139 -33 52 -61 98 -61
102 0 5 -4 9 -10 9 -5 0 -10 5 -10 10 0 6 -5 16 -10 23 -16 18 -150 227 -150
233 0 3 -5 10 -11 17 -19 22 -99 149 -99 157 0 5 -4 10 -8 12 -4 2 -44 59 -87
128 -44 69 -83 130 -88 135 -4 6 -35 53 -68 105 -131 203 -158 245 -166 255
-4 6 -14 22 -22 38 -8 15 -18 27 -23 27 -4 0 -8 5 -8 11 0 31 -171 206 -261
266 -97 66 -225 127 -289 139 -14 3 -38 9 -55 14 -106 33 -316 32 -480 -4 -98
-21 -269 -97 -367 -163 -239 -160 -391 -384 -446 -658 -9 -42 -8 -231 0 -285
24 -151 80 -287 190 -455 29 -45 91 -139 138 -210 95 -146 106 -164 116 -185
4 -8 10 -17 13 -20 6 -4 79 -116 106 -160 35 -58 92 -144 102 -155 7 -8 13
-16 13 -19 0 -3 28 -48 63 -100 34 -53 93 -144 131 -203 39 -60 100 -155 138
-212 37 -57 68 -105 68 -107 0 -1 31 -49 68 -106 38 -57 147 -224 243 -373 95
-148 177 -271 181 -273 5 -2 8 -8 8 -13 0 -5 32 -57 70 -115 39 -58 70 -110
70 -115 0 -5 5 -9 10 -9 6 0 10 -4 10 -8 0 -5 31 -55 68 -113 37 -57 91 -140
120 -184 28 -44 56 -87 61 -95 72 -108 131 -202 131 -210 0 -6 4 -10 8 -10 5
0 15 -12 23 -27 8 -16 18 -32 22 -38 20 -25 77 -118 77 -125 0 -5 3 -10 8 -12
4 -1 23 -28 42 -58 19 -30 38 -59 43 -65 4 -5 66 -102 138 -215 167 -261 202
-314 212 -318 4 -2 7 -8 7 -13 0 -5 33 -59 73 -121 41 -62 104 -159 140 -215
37 -57 67 -107 67 -112 0 -5 4 -11 9 -13 10 -4 111 -164 111 -177 0 -5 3 -11
8 -13 4 -1 20 -22 35 -46 35 -54 58 -81 132 -156 83 -85 199 -176 223 -176 6
0 12 -3 14 -8 7 -17 171 -84 264 -108 81 -21 123 -26 234 -27 74 -1 153 2 175
6 309 57 536 208 716 475 38 56 69 107 69 112 0 6 5 10 10 10 6 0 10 4 10 10
0 5 22 43 50 83 27 41 55 86 61 101 7 14 16 26 21 26 4 0 8 5 8 10 0 6 9 23
19 38 10 15 53 81 95 147 41 66 80 125 86 132 5 7 10 15 10 18 0 5 34 59 129
205 20 30 41 63 46 73 6 10 78 123 160 253 83 129 155 242 160 252 6 9 12 19
15 22 3 3 10 14 16 25 39 69 189 301 196 303 4 2 8 10 8 17 0 8 6 20 13 27 7
7 32 45 56 83 23 39 102 165 176 280 74 116 148 233 165 260 17 28 48 76 68
108 96 150 198 313 204 329 4 10 12 18 18 18 5 0 10 4 10 10 0 8 152 254 167
270 4 5 9 -1 44 -59 15 -26 146 -226 248 -381 31 -47 62 -97 70 -112 7 -16 17
-28 22 -28 5 0 9 -4 9 -9 0 -8 93 -157 150 -241 6 -8 29 -44 52 -80 23 -36 67
-103 97 -150 31 -47 63 -97 70 -112 8 -16 18 -28 23 -28 4 0 8 -7 8 -15 0 -8
5 -15 10 -15 6 0 10 -4 10 -10 0 -8 72 -120 256 -401 24 -37 44 -71 44 -77 0
-6 4 -12 8 -14 8 -3 66 -84 73 -103 2 -5 42 -68 89 -140 160 -242 245 -375
260 -402 8 -16 21 -32 28 -36 7 -5 10 -12 7 -16 -2 -5 2 -15 11 -22 8 -7 22
-26 31 -42 8 -17 19 -35 25 -41 12 -14 162 -246 178 -276 7 -13 17 -29 22 -34
21 -25 228 -348 228 -357 0 -5 5 -9 10 -9 6 0 10 -5 10 -11 0 -6 6 -16 13 -23
6 -8 19 -24 27 -37 27 -40 123 -144 173 -184 253 -207 561 -275 895 -199 61
14 180 55 205 71 7 4 14 8 17 9 11 1 65 29 70 35 3 3 19 14 37 22 45 24 151
106 208 163 116 116 219 293 261 449 15 56 19 102 18 225 -1 139 -4 165 -28
245 -15 50 -42 122 -61 160 -35 73 -252 417 -267 423 -4 2 -8 8 -8 13 0 10
-67 116 -87 137 -7 7 -13 18 -13 23 0 5 -5 15 -10 22 -6 7 -47 68 -92 137 -44
69 -100 154 -123 190 -23 36 -93 144 -155 240 -62 96 -141 218 -175 270 -34
52 -81 127 -106 165 -24 39 -47 75 -52 80 -5 6 -70 106 -145 223 -156 242
-329 509 -447 692 -80 122 -156 240 -240 370 -119 185 -144 224 -210 325 -139
214 -201 310 -220 343 -11 17 -22 32 -26 32 -4 0 -10 8 -13 18 -7 19 -9 23
-80 132 -27 41 -53 77 -57 78 -5 2 -9 9 -9 15 0 10 -19 42 -70 117 -6 8 -44
67 -85 130 -40 63 -77 120 -82 125 -4 6 -14 22 -22 38 -8 15 -18 27 -23 27 -4
0 -8 5 -8 10 0 6 -8 23 -18 38 -11 15 -32 47 -48 72 -16 25 -32 47 -36 48 -5
2 -8 8 -8 13 0 6 -39 69 -87 142 -82 125 -252 317 -280 317 -6 0 -13 4 -15 8
-6 16 -96 71 -179 110 -154 73 -281 100 -457 99 -68 0 -125 -4 -128 -9z m182
-581 c89 -10 226 -75 295 -139 35 -32 99 -119 99 -134 0 -4 8 -16 18 -27 14
-15 17 -38 17 -116 0 -113 -8 -135 -115 -304 -82 -129 -71 -112 -177 -281 -46
-72 -87 -136 -93 -143 -5 -7 -10 -15 -10 -18 0 -3 -26 -45 -59 -93 -32 -48
-129 -199 -216 -337 -230 -364 -233 -369 -245 -382 -5 -7 -10 -14 -10 -17 0
-4 -115 -189 -141 -226 -13 -20 -49 -76 -133 -210 -36 -58 -70 -112 -76 -120
-43 -65 -59 -90 -80 -127 -13 -24 -27 -43 -32 -43 -4 0 -7 -3 -6 -7 1 -5 -16
-35 -37 -68 -22 -33 -44 -68 -50 -77 -32 -56 -119 -194 -125 -198 -4 -3 -10
-12 -13 -20 -4 -8 -16 -28 -27 -45 -11 -16 -23 -37 -27 -45 -4 -8 -11 -19 -15
-25 -5 -5 -23 -32 -41 -60 -57 -88 -162 -255 -172 -273 -5 -9 -23 -37 -40 -62
-16 -25 -35 -54 -42 -65 -10 -18 -50 -81 -274 -435 -30 -47 -57 -86 -61 -88
-5 -2 -8 -8 -8 -13 0 -5 -26 -50 -57 -99 -32 -49 -79 -122 -104 -162 -26 -40
-77 -122 -115 -181 -38 -60 -73 -116 -79 -125 -5 -9 -30 -48 -55 -87 -25 -39
-49 -78 -55 -88 -5 -9 -58 -92 -117 -184 -125 -197 -168 -246 -262 -298 -58
-32 -102 -40 -206 -38 -115 2 -220 41 -318 118 -86 67 -163 207 -158 285 1 16
-2 30 -6 30 -5 0 -4 9 2 20 6 11 9 20 6 20 -8 0 29 101 50 140 11 19 33 55 48
80 16 25 46 72 67 105 21 33 42 65 46 70 5 6 31 47 58 93 28 45 53 82 57 82 5
0 8 5 8 10 0 10 99 172 119 196 5 7 36 54 68 105 31 52 61 96 65 97 5 2 8 8 8
12 0 10 155 256 178 283 8 9 11 17 6 17 -5 0 -4 4 2 8 6 4 71 103 145 220 74
116 155 245 181 285 26 39 51 78 55 86 3 8 71 116 150 239 79 123 143 228 143
233 0 5 5 9 10 9 6 0 10 4 10 10 0 5 11 26 25 47 40 60 39 59 160 248 63 99
124 196 135 215 11 19 43 69 70 110 28 41 53 82 57 90 3 8 19 34 35 57 15 23
28 46 28 51 0 6 4 12 8 14 5 2 47 64 93 138 46 74 86 137 89 140 3 3 19 27 35
55 16 27 32 54 37 60 14 17 58 86 58 91 0 8 75 119 83 122 4 2 7 8 7 14 0 5
14 29 30 53 17 24 30 48 30 53 0 6 4 12 8 14 6 2 181 273 217 336 6 9 24 37
40 62 17 25 35 54 42 65 61 101 98 161 103 165 3 3 38 57 77 120 69 110 109
161 164 205 47 38 134 75 194 81 33 4 62 8 64 10 2 2 7 2 10 -1 4 -2 25 -6 47
-8z m-5786 -18 c107 -32 178 -90 257 -209 51 -76 140 -213 228 -350 26 -41 70
-108 97 -148 26 -40 48 -77 48 -82 0 -6 5 -10 10 -10 6 0 10 -6 10 -13 0 -8 9
-22 20 -32 11 -10 20 -22 20 -26 0 -5 33 -58 73 -118 39 -61 103 -159 141
-218 39 -59 87 -134 108 -166 21 -32 38 -63 38 -68 0 -5 4 -9 9 -9 5 0 15 -12
22 -27 8 -16 44 -73 80 -128 36 -55 112 -172 169 -260 57 -88 127 -197 157
-242 29 -45 53 -85 53 -88 0 -6 11 -20 38 -50 6 -7 12 -18 12 -23 0 -5 9 -17
20 -27 11 -10 17 -22 14 -26 -3 -5 2 -12 10 -15 9 -3 16 -11 16 -18 0 -6 23
-45 50 -86 64 -95 43 -62 231 -355 21 -33 43 -67 49 -75 27 -39 183 -281 210
-325 17 -27 67 -104 111 -170 43 -66 82 -127 86 -135 3 -8 13 -23 21 -33 15
-17 21 -26 54 -84 16 -29 16 -30 -28 -98 -24 -39 -47 -74 -52 -80 -7 -10 -106
-167 -127 -203 -5 -9 -36 -57 -67 -105 -32 -48 -58 -90 -58 -93 0 -2 -15 -26
-32 -52 -18 -26 -53 -81 -78 -121 -25 -40 -52 -82 -61 -94 -16 -21 -16 -20
-33 15 -9 19 -25 44 -35 54 -9 11 -20 26 -23 34 -6 16 -111 177 -128 197 -5 7
-10 14 -10 17 0 3 -36 59 -80 125 -44 67 -80 126 -80 131 0 6 -3 10 -7 10 -5
0 -24 27 -43 60 -19 33 -38 60 -42 60 -5 0 -8 5 -8 11 0 6 -26 50 -58 97 -32
48 -61 92 -63 97 -2 6 -40 64 -83 130 -165 251 -246 375 -246 381 0 2 -5 10
-11 17 -5 7 -33 48 -62 92 -28 44 -102 158 -164 253 -62 95 -113 175 -113 178
0 3 -5 10 -10 17 -19 22 -80 119 -80 127 0 5 -3 10 -8 12 -4 2 -36 48 -71 103
-36 55 -92 143 -126 195 -34 52 -89 138 -123 190 -34 52 -66 100 -72 107 -5 7
-15 24 -22 38 -6 14 -15 25 -20 25 -4 0 -8 4 -8 10 0 12 -111 184 -122 188 -4
2 -8 9 -8 16 0 7 -15 33 -33 57 -18 24 -39 56 -46 72 -8 15 -18 27 -23 27 -4
0 -8 5 -8 11 0 5 -18 37 -40 69 -22 32 -40 64 -40 69 0 6 -4 11 -10 11 -5 0
-10 7 -10 15 0 8 -4 15 -10 15 -5 0 -10 6 -10 14 0 8 -3 16 -7 18 -9 3 -53 64
-53 72 0 4 -42 70 -225 351 -81 124 -100 176 -100 270 0 66 5 91 28 140 60
130 235 253 387 272 25 3 46 7 48 8 7 6 118 -6 152 -16z m6695 -1044 c30 -47
55 -88 55 -91 0 -3 8 -14 18 -25 11 -10 25 -32 33 -47 8 -15 18 -31 22 -37 23
-29 207 -317 207 -324 0 -4 9 -16 20 -26 11 -10 20 -24 20 -31 0 -7 4 -14 8
-16 4 -1 19 -21 32 -43 26 -42 113 -177 267 -413 51 -79 93 -145 93 -148 0 -3
5 -10 11 -17 5 -7 29 -41 52 -77 23 -36 128 -197 232 -358 105 -161 195 -300
200 -310 6 -9 45 -70 88 -135 42 -65 77 -122 77 -128 0 -5 4 -9 8 -9 5 0 14
-10 21 -22 18 -35 127 -205 429 -667 63 -96 117 -182 120 -190 3 -9 9 -18 12
-21 4 -3 34 -48 68 -100 34 -52 66 -100 72 -107 5 -7 10 -14 10 -17 0 -3 32
-52 70 -110 39 -58 70 -110 70 -115 0 -5 4 -11 8 -13 14 -5 152 -231 152 -248
0 -9 4 -20 9 -25 8 -9 24 -85 22 -110 -5 -105 -43 -182 -132 -267 -38 -38 -77
-68 -85 -68 -7 0 -14 -4 -14 -10 0 -5 -6 -10 -13 -10 -7 0 -28 -8 -47 -19 -88
-47 -260 -59 -350 -24 -8 3 -21 7 -28 9 -20 4 -117 73 -139 98 -33 39 -88 119
-189 276 -54 85 -102 157 -106 158 -5 2 -8 8 -8 13 0 5 -27 50 -60 99 -33 49
-60 94 -60 100 0 5 -3 10 -8 10 -4 0 -18 20 -32 45 -14 25 -28 45 -32 45 -5 0
-8 4 -8 9 0 5 -22 44 -50 85 -27 42 -50 80 -50 86 0 5 -3 10 -8 10 -4 0 -27
33 -52 73 -24 39 -79 125 -122 189 -43 65 -78 122 -78 128 0 5 -3 10 -8 10 -4
0 -18 20 -32 45 -14 25 -28 45 -31 45 -4 0 -9 8 -13 18 -5 17 -26 53 -36 62
-3 3 -21 30 -40 60 -19 30 -38 57 -42 58 -5 2 -8 8 -8 14 0 5 -10 24 -22 41
-13 17 -27 40 -33 50 -5 9 -53 83 -105 162 -52 80 -100 153 -105 163 -6 9 -31
49 -57 88 -25 39 -76 118 -114 175 -37 57 -100 155 -141 217 -40 62 -73 117
-73 122 0 6 -4 10 -8 10 -5 0 -14 10 -21 23 -6 12 -19 34 -29 49 -9 14 -48 75
-87 135 -61 95 -134 207 -164 253 -83 126 -151 232 -151 236 0 3 -5 10 -11 17
-5 7 -30 43 -55 81 l-44 68 47 77 c26 42 51 81 56 86 20 25 277 438 277 445 0
5 4 10 8 12 5 2 26 32 48 68 21 36 42 67 45 70 3 3 14 20 23 38 9 17 21 32 26
32 6 0 35 -38 65 -85z"/>
</g>
</svg>
