<?xml version="1.0" encoding="utf-8"?>
<!-- Generator: Adobe Illustrator 24.3.0, SVG Export Plug-In . SVG Version: 6.00 Build 0)  -->
<svg version="1.1" id="Capa_1" xmlns="http://www.w3.org/2000/svg" xmlns:xlink="http://www.w3.org/1999/xlink" x="0px" y="0px"
	 viewBox="0 0 548.7 332.3" style="enable-background:new 0 0 548.7 332.3;" xml:space="preserve">
<style type="text/css">
	.st0{fill:#90A2B1;}
	.st1{fill:#2D4F6C;}
</style>
<g id="__id8_sy9vd1qfo_1_">
	<g id="__id9_sy9vd1qfo_1_">
		<path class="st0" d="M345.8,0.5c19.6,0,39,11.3,48.2,28.1c8.4,15.3,7.5,33.1-2.4,48.9L245.7,307.6c-9.8,15.4-26.2,24.6-44,24.6
			c-17.8,0-34.4-9.2-44.3-24.5L8.4,77.5C-1.7,61.9-2.7,44.2,5.6,28.9C14.8,12,34.2,0.7,54,0.7c0,0,0,0,0,0
			c17.3,0,32.9,8.7,42.7,23.8l104.4,161.3L303.2,24.5C312.9,9.3,328.4,0.5,345.8,0.5z M201.7,303.3c7.9,0,15.1-4.1,19.6-11.2
			L367.2,61.9c4.3-6.8,4.9-13.4,1.5-19.4c-4.2-7.6-13.8-13.1-22.9-13.1c-7.6,0-13.7,3.6-18.2,10.6L201.3,239.4L72.4,40.2
			c-4.5-7-10.7-10.5-18.4-10.5l0,0c-9.2,0-18.9,5.5-23,13.1c-3.2,5.9-2.7,12.4,1.7,19.1l149,230.2
			C186.3,299.2,193.6,303.3,201.7,303.3z"/>
	</g>
</g>
<g id="__id8_sy9vd1qfo">
	<g id="__id9_sy9vd1qfo">
		<path class="st1" d="M202.9,331.8c-19.6,0-39-11.3-48.2-28.1c-8.4-15.3-7.5-33.1,2.4-48.9L303,24.6C312.8,9.2,329.3,0,347.1,0
			c17.8,0,34.4,9.2,44.3,24.5l149,230.2c10.1,15.6,11.2,33.4,2.8,48.7c-9.2,16.9-28.6,28.2-48.4,28.2c0,0,0,0,0,0
			c-17.3,0-32.9-8.7-42.7-23.8L347.7,146.5L245.5,307.7C235.8,323,220.3,331.8,202.9,331.8z M347.1,29c-7.9,0-15.1,4.1-19.6,11.2
			L181.6,270.3c-4.3,6.8-4.9,13.4-1.5,19.4c4.2,7.6,13.8,13.1,22.9,13.1c7.6,0,13.7-3.6,18.2-10.6L347.4,92.9l128.9,199.2
			c4.5,7,10.7,10.5,18.4,10.5l0,0c9.2,0,18.9-5.5,23-13.1c3.2-5.9,2.7-12.4-1.7-19.1l-149-230.2C362.4,33.1,355.1,29,347.1,29z"/>
	</g>
</g>
</svg>
