<?xml version="1.0" encoding="utf-8"?>
<!-- Generator: Adobe Illustrator 24.3.0, SVG Export Plug-In . SVG Version: 6.00 Build 0)  -->
<svg version="1.1" id="Capa_1" xmlns="http://www.w3.org/2000/svg" xmlns:xlink="http://www.w3.org/1999/xlink" x="0px" y="0px"
	 viewBox="0 0 622 158.8" style="enable-background:new 0 0 622 158.8;" xml:space="preserve">
<style type="text/css">
	.st0{fill:#90A2B1;}
	.st1{fill:#2D4F6C;}
</style>
<g>
	<g id="__id8_sy9vd1qfo_1_">
		<g id="__id9_sy9vd1qfo_1_">
			<path class="st0" d="M158.2,7.4c8.6,0,17.1,4.9,21.1,12.3c3.7,6.7,3.3,14.5-1.1,21.4l-63.9,100.8c-4.3,6.8-11.5,10.8-19.3,10.8
				c-7.8,0-15-4-19.4-10.7L10.4,41.1C6,34.3,5.5,26.5,9.2,19.8c4-7.4,12.5-12.3,21.2-12.3c0,0,0,0,0,0c7.6,0,14.4,3.8,18.7,10.4
				l45.7,70.6l44.7-70.6C143.8,11.2,150.6,7.4,158.2,7.4z M95.1,140c3.5,0,6.6-1.8,8.6-4.9l63.9-100.8c1.9-3,2.1-5.9,0.7-8.5
				c-1.8-3.3-6-5.7-10-5.7c-3.3,0-6,1.6-8,4.6L94.9,112L38.4,24.7c-2-3.1-4.7-4.6-8-4.6l0,0c-4,0-8.3,2.4-10.1,5.7
				c-1.4,2.6-1.2,5.4,0.7,8.4L86.3,135C88.3,138.2,91.5,140,95.1,140z"/>
		</g>
	</g>
	<g id="__id8_sy9vd1qfo">
		<g id="__id9_sy9vd1qfo">
			<path class="st1" d="M96,152.4c-8.6,0-17.1-4.9-21.1-12.3c-3.7-6.7-3.3-14.5,1.1-21.4l63.9-100.8c4.3-6.8,11.5-10.8,19.3-10.8
				c7.8,0,15,4,19.4,10.7l65.2,100.8c4.4,6.9,4.9,14.6,1.2,21.3c-4,7.4-12.5,12.3-21.2,12.3c0,0,0,0,0,0c-7.6,0-14.4-3.8-18.7-10.4
				l-45.7-70.6l-44.7,70.6C110.5,148.6,103.6,152.4,96,152.4z M159.2,19.8c-3.5,0-6.6,1.8-8.6,4.9L86.7,125.5
				c-1.9,3-2.1,5.9-0.7,8.5c1.8,3.3,6,5.7,10,5.7c3.3,0,6-1.6,8-4.6l55.3-87.3l56.5,87.3c2,3.1,4.7,4.6,8,4.6l0,0
				c4,0,8.3-2.4,10.1-5.7c1.4-2.6,1.2-5.4-0.7-8.4L167.9,24.8C165.9,21.6,162.7,19.8,159.2,19.8z"/>
		</g>
	</g>
</g>
<g>
	<path class="st1" d="M293.4,111v-3c0-3.1,0.5-5.8,1.4-8.3s2.2-4.7,3.7-6.8c1.5-2.1,3.1-4.2,4.7-6.2c1.6-2,3.2-4,4.6-6.1
		c1.5-2.1,2.7-4.3,3.6-6.8c0.9-2.4,1.4-5.2,1.4-8.2c0-1.5-0.2-2.7-0.7-3.7c-0.4-1-1.3-1.6-2.7-1.6c-2.1,0-3.1,1.8-3.1,5.5v7.6h-13
		c0-0.5-0.1-1.1-0.1-1.8s-0.1-1.3-0.1-2c0-4.5,0.5-8.2,1.4-11.3c0.9-3.1,2.6-5.5,5-7.1c2.4-1.6,5.7-2.4,10-2.4c5.1,0,9.1,1.4,12,4.3
		s4.3,7,4.3,12.3c0,3.6-0.5,6.8-1.4,9.5c-0.9,2.7-2.2,5.2-3.7,7.5s-3.2,4.5-5.1,6.7c-1.3,1.6-2.6,3.2-3.8,4.8s-2.3,3.4-3.3,5.3h16.9
		V111H293.4z"/>
	<path class="st1" d="M374.5,111.5c-5.6,0-9.7-1.4-12.2-4.2s-3.7-7.3-3.7-13.4v-6h12.2v7.7c0,1.4,0.2,2.5,0.7,3.4s1.2,1.2,2.3,1.2
		c1.1,0,1.9-0.3,2.3-1s0.7-1.7,0.7-3.2c0-1.9-0.2-3.5-0.6-4.8s-1-2.5-2-3.7s-2.2-2.5-3.8-4.1l-5.6-5.3c-4.1-3.9-6.2-8.4-6.2-13.4
		c0-5.3,1.2-9.3,3.7-12.1s6-4.1,10.6-4.1c5.7,0,9.7,1.5,12.1,4.5s3.6,7.6,3.6,13.8h-12.6v-4.3c0-0.8-0.2-1.5-0.7-2s-1.1-0.7-2-0.7
		c-1,0-1.7,0.3-2.2,0.8s-0.7,1.3-0.7,2.1s0.2,1.8,0.7,2.8s1.4,2.2,2.8,3.5L381,76c1.4,1.4,2.7,2.8,3.9,4.3s2.2,3.3,2.9,5.3
		s1.1,4.4,1.1,7.3c0,5.8-1.1,10.4-3.2,13.7S379.8,111.5,374.5,111.5z"/>
	<path class="st1" d="M428.1,111l-6.6-61.9h12.1l3.4,39.1l3.5-39.1H452l3.3,39.1l3.3-39.1h12.2l-6.8,61.9h-14.8l-3.1-29.8l-3,29.8
		H428.1z"/>
	<path class="st1" d="M502.1,111l6-61.9h21l5.9,61.9h-11.7l-0.9-10h-7.5l-0.8,10H502.1z M515.8,91.1h5.6l-2.7-31.5h-0.6L515.8,91.1z
		"/>
	<path class="st1" d="M569,111V49.1h16.3c3.4,0,6.1,0.8,8.1,2.3s3.4,3.7,4.3,6.5c0.9,2.8,1.3,6.2,1.3,10.1c0,3.8-0.4,7-1.1,9.8
		s-2,4.9-3.9,6.5s-4.5,2.3-7.9,2.3h-5V111H569z M581.1,75.3h0.7c2.3,0,3.7-0.6,4.2-1.9s0.8-3.2,0.8-5.7c0-2.3-0.3-4.2-0.8-5.4
		s-1.7-1.9-3.6-1.9h-1.4V75.3z"/>
</g>
</svg>
