<?xml version="1.0" encoding="utf-8"?>
<!-- Generator: Adobe Illustrator 24.3.0, SVG Export Plug-In . SVG Version: 6.00 Build 0)  -->
<svg version="1.1" id="Capa_1" xmlns="http://www.w3.org/2000/svg" xmlns:xlink="http://www.w3.org/1999/xlink" x="0px" y="0px"
	 viewBox="0 0 367.4 330.3" style="enable-background:new 0 0 367.4 330.3;" xml:space="preserve">
<style type="text/css">
	.st0{fill:#90A2B1;}
	.st1{fill:#2D4F6C;}
</style>
<g>
	<g id="__id8_sy9vd1qfo_1_">
		<g id="__id9_sy9vd1qfo_1_">
			<path class="st0" d="M215.5,15c8.6,0,17.1,4.9,21.1,12.3c3.7,6.7,3.3,14.5-1.1,21.4l-63.9,100.8c-4.3,6.8-11.5,10.8-19.3,10.8
				c-7.8,0-15-4-19.4-10.7L67.7,48.8c-4.4-6.9-4.9-14.6-1.2-21.3c4-7.4,12.5-12.3,21.2-12.3c0,0,0,0,0,0c7.6,0,14.4,3.8,18.7,10.4
				l45.7,70.6l44.7-70.6C201,18.9,207.9,15,215.5,15z M152.3,147.7c3.5,0,6.6-1.8,8.6-4.9l63.9-100.8c1.9-3,2.1-5.9,0.7-8.5
				c-1.8-3.3-6-5.7-10-5.7c-3.3,0-6,1.6-8,4.6l-55.3,87.3L95.7,32.4c-2-3.1-4.7-4.6-8-4.6l0,0c-4,0-8.3,2.4-10.1,5.7
				c-1.4,2.6-1.2,5.4,0.7,8.4l65.2,100.8C145.6,145.9,148.8,147.7,152.3,147.7z"/>
		</g>
	</g>
	<g id="__id8_sy9vd1qfo">
		<g id="__id9_sy9vd1qfo">
			<path class="st1" d="M153.3,160.1c-8.6,0-17.1-4.9-21.1-12.3c-3.7-6.7-3.3-14.5,1.1-21.4l63.9-100.8c4.3-6.8,11.5-10.8,19.3-10.8
				c7.8,0,15,4,19.4,10.7l65.2,100.8c4.4,6.9,4.9,14.6,1.2,21.3c-4,7.4-12.5,12.3-21.2,12.3c0,0,0,0,0,0c-7.6,0-14.4-3.8-18.7-10.4
				L216.7,79L172,149.6C167.7,156.3,160.9,160.1,153.3,160.1z M216.4,27.5c-3.5,0-6.6,1.8-8.6,4.9L144,133.2c-1.9,3-2.1,5.9-0.7,8.5
				c1.8,3.3,6,5.7,10,5.7c3.3,0,6-1.6,8-4.6l55.3-87.3l56.5,87.3c2,3.1,4.7,4.6,8,4.6l0,0c4,0,8.3-2.4,10.1-5.7
				c1.4-2.6,1.2-5.4-0.7-8.4L225.2,32.5C223.2,29.3,220,27.5,216.4,27.5z"/>
		</g>
	</g>
</g>
<g>
	<path class="st1" d="M35.8,268.2v-3c0-3.1,0.5-5.8,1.4-8.3s2.2-4.7,3.7-6.8c1.5-2.1,3.1-4.2,4.7-6.2c1.6-2,3.2-4,4.6-6.1
		c1.5-2.1,2.7-4.3,3.6-6.8c0.9-2.4,1.4-5.2,1.4-8.2c0-1.5-0.2-2.7-0.7-3.7c-0.4-1-1.3-1.6-2.7-1.6c-2.1,0-3.1,1.8-3.1,5.5v7.6h-13
		c0-0.5-0.1-1.1-0.1-1.8s-0.1-1.3-0.1-2c0-4.5,0.5-8.2,1.4-11.3c0.9-3.1,2.6-5.5,5-7.1c2.4-1.6,5.7-2.4,10-2.4c5.1,0,9.1,1.4,12,4.3
		s4.3,7,4.3,12.3c0,3.6-0.5,6.8-1.4,9.5c-0.9,2.7-2.2,5.2-3.7,7.5s-3.2,4.5-5.1,6.7c-1.3,1.6-2.6,3.2-3.8,4.8s-2.3,3.4-3.3,5.3h16.9
		v11.7H35.8z"/>
	<path class="st1" d="M116.9,268.8c-5.6,0-9.7-1.4-12.2-4.2s-3.7-7.3-3.7-13.4v-6h12.2v7.7c0,1.4,0.2,2.5,0.7,3.4s1.2,1.2,2.3,1.2
		c1.1,0,1.9-0.3,2.3-1s0.7-1.7,0.7-3.2c0-1.9-0.2-3.5-0.6-4.8s-1-2.5-2-3.7s-2.2-2.5-3.8-4.1l-5.6-5.3c-4.1-3.9-6.2-8.4-6.2-13.4
		c0-5.3,1.2-9.3,3.7-12.1s6-4.1,10.6-4.1c5.7,0,9.7,1.5,12.1,4.5c2.4,3,3.6,7.6,3.6,13.8h-12.6v-4.3c0-0.8-0.2-1.5-0.7-2
		s-1.1-0.7-2-0.7c-1,0-1.7,0.3-2.2,0.8s-0.7,1.3-0.7,2.1s0.2,1.8,0.7,2.8s1.4,2.2,2.8,3.5l7.1,6.9c1.4,1.4,2.7,2.8,3.9,4.3
		c1.2,1.5,2.2,3.3,2.9,5.3s1.1,4.4,1.1,7.3c0,5.8-1.1,10.4-3.2,13.7C126,267.1,122.2,268.8,116.9,268.8z"/>
	<path class="st1" d="M170.5,268.2l-6.6-61.9H176l3.4,39.1l3.5-39.1h11.5l3.3,39.1l3.3-39.1h12.2l-6.8,61.9h-14.8l-3.1-29.8l-3,29.8
		H170.5z"/>
	<path class="st1" d="M244.5,268.2l6-61.9h21l5.9,61.9h-11.7l-0.9-10h-7.5l-0.8,10H244.5z M258.2,248.4h5.6l-2.7-31.5h-0.6
		L258.2,248.4z"/>
	<path class="st1" d="M311.4,268.2v-61.9h16.3c3.4,0,6.1,0.8,8.1,2.3s3.4,3.7,4.3,6.5c0.9,2.8,1.3,6.2,1.3,10.1c0,3.8-0.4,7-1.1,9.8
		s-2,4.9-3.9,6.5s-4.5,2.3-7.9,2.3h-5v24.5H311.4z M323.5,232.6h0.7c2.3,0,3.7-0.6,4.2-1.9s0.8-3.2,0.8-5.7c0-2.3-0.3-4.2-0.8-5.4
		s-1.7-1.9-3.6-1.9h-1.4V232.6z"/>
</g>
<g>
	<path class="st0" d="M16.7,315.3v-18h4.9c1.3,0,2.3,0.3,2.9,1c0.6,0.6,0.9,1.7,0.9,3.2v0.8c0,0.8-0.2,1.5-0.5,2.1
		c-0.3,0.5-0.8,0.9-1.4,1c0.8,0.2,1.4,0.7,1.6,1.4c0.3,0.8,0.4,1.7,0.4,2.8c0,1.2-0.1,2.2-0.3,3.1s-0.6,1.6-1.2,2
		c-0.6,0.5-1.4,0.7-2.5,0.7H16.7z M20.3,304H21c0.3,0,0.6-0.1,0.6-0.4c0.1-0.3,0.1-0.6,0.1-0.9v-1.8c0-0.6-0.3-0.9-0.8-0.9h-0.8V304
		z M20.6,312.1c0.9,0,1.4-0.4,1.4-1.3v-2.3c0-0.5-0.1-0.9-0.2-1.2c-0.2-0.3-0.4-0.4-0.9-0.4h-0.7v5.2
		C20.4,312.1,20.5,312.1,20.6,312.1z"/>
	<path class="st0" d="M40.3,315.5c-1.5,0-2.6-0.4-3.3-1.3c-0.7-0.8-1.1-2.1-1.1-3.7v-13.2h3.5v13.1c0,0.3,0,0.6,0.1,0.9
		c0,0.3,0.1,0.5,0.2,0.7s0.3,0.3,0.6,0.3c0.3,0,0.5-0.1,0.6-0.3c0.1-0.2,0.2-0.4,0.2-0.7c0-0.3,0-0.6,0-0.9v-13.1h3.5v13.2
		c0,1.6-0.4,2.9-1.1,3.7C42.9,315,41.8,315.5,40.3,315.5z"/>
	<path class="st0" d="M57.5,315.3v-5.9l-2.9-12.1h3.6l1,6.1l1-6.1h3.6l-2.9,12.1v5.9H57.5z"/>
	<path class="st0" d="M87.7,315.3l1.7-18h6.1l1.7,18h-3.4l-0.3-2.9h-2.2l-0.2,2.9H87.7z M91.7,309.5h1.6l-0.8-9.2h-0.2L91.7,309.5z"
		/>
	<path class="st0" d="M107.7,315.3v-18h3.7l1.7,8.6v-8.6h3.5v18h-3.5l-1.8-9v9H107.7z"/>
	<path class="st0" d="M127.5,315.3v-18h5c1.3,0,2.3,0.4,2.9,1.1c0.7,0.7,1,1.8,1,3.2v8.4c0,1.7-0.3,3-0.9,4
		c-0.6,0.9-1.6,1.4-3.1,1.4H127.5z M131.1,312.1h0.6c0.7,0,1-0.3,1-1v-9.3c0-0.6-0.1-1-0.2-1.2c-0.2-0.2-0.5-0.3-1-0.3h-0.4V312.1z"
		/>
	<path class="st0" d="M165.7,315.5c-1.6,0-2.8-0.4-3.6-1.2c-0.7-0.8-1.1-2.1-1.1-3.9v-1.8h3.6v2.3c0,0.4,0.1,0.7,0.2,1
		c0.1,0.2,0.3,0.4,0.7,0.4c0.3,0,0.6-0.1,0.7-0.3c0.1-0.2,0.2-0.5,0.2-0.9c0-0.6-0.1-1-0.2-1.4c-0.1-0.4-0.3-0.7-0.6-1.1
		c-0.3-0.3-0.6-0.7-1.1-1.2l-1.6-1.5c-1.2-1.1-1.8-2.4-1.8-3.9c0-1.5,0.4-2.7,1.1-3.5c0.7-0.8,1.7-1.2,3.1-1.2
		c1.7,0,2.8,0.4,3.5,1.3c0.7,0.9,1,2.2,1,4h-3.7v-1.2c0-0.2-0.1-0.4-0.2-0.6c-0.1-0.1-0.3-0.2-0.6-0.2c-0.3,0-0.5,0.1-0.6,0.2
		c-0.1,0.2-0.2,0.4-0.2,0.6s0.1,0.5,0.2,0.8c0.1,0.3,0.4,0.6,0.8,1l2.1,2c0.4,0.4,0.8,0.8,1.1,1.3c0.3,0.4,0.6,1,0.8,1.5
		c0.2,0.6,0.3,1.3,0.3,2.1c0,1.7-0.3,3-0.9,4C168.3,315,167.2,315.5,165.7,315.5z"/>
	<path class="st0" d="M180.4,315.3v-18h7.2v3.5H184v3.5h3.4v3.4H184v4.1h3.8v3.5H180.4z"/>
	<path class="st0" d="M198.3,315.3v-18h3.6v15h3.7v3.1H198.3z"/>
	<path class="st0" d="M216,315.3v-18h3.6v15h3.7v3.1H216z"/>
	<path class="st0" d="M252,315.5c-1.3,0-2.4-0.4-3.2-1.2c-0.8-0.8-1.2-2-1.2-3.4v-8.3c0-1.8,0.3-3.1,1-4c0.7-0.9,1.8-1.4,3.4-1.4
		c0.9,0,1.6,0.2,2.3,0.5c0.7,0.3,1.2,0.8,1.6,1.4c0.4,0.6,0.6,1.4,0.6,2.4v3.1H253v-2.7c0-0.5-0.1-0.9-0.2-1.1
		c-0.1-0.2-0.3-0.3-0.6-0.3c-0.3,0-0.6,0.1-0.7,0.4c-0.1,0.2-0.2,0.6-0.2,1v9c0,0.5,0.1,0.9,0.2,1.1c0.1,0.2,0.4,0.3,0.6,0.3
		c0.3,0,0.5-0.1,0.7-0.4c0.1-0.3,0.2-0.6,0.2-1v-3.3h3.6v3.4c0,1.6-0.4,2.7-1.2,3.5C254.6,315.1,253.5,315.5,252,315.5z"/>
	<path class="st0" d="M267.1,315.3v-18h5.5c0.9,0,1.6,0.2,2.1,0.6c0.5,0.4,0.8,1,0.9,1.8c0.2,0.8,0.2,1.6,0.2,2.7
		c0,1-0.1,1.8-0.4,2.4c-0.2,0.6-0.7,1-1.4,1.2c0.6,0.1,1,0.4,1.2,0.8c0.2,0.4,0.3,1,0.3,1.7v6.8h-3.6v-7.1c0-0.5-0.1-0.9-0.3-1
		c-0.2-0.1-0.6-0.2-1-0.2v8.2H267.1z M270.8,303.9h0.9c0.5,0,0.7-0.5,0.7-1.6c0-0.7-0.1-1.2-0.2-1.4s-0.3-0.3-0.6-0.3h-0.8V303.9z"
		/>
	<path class="st0" d="M288.6,315.3v-5.9l-2.9-12.1h3.6l1,6.1l1-6.1h3.6l-2.9,12.1v5.9H288.6z"/>
	<path class="st0" d="M305.1,315.3v-18h4.8c1,0,1.8,0.2,2.4,0.7c0.6,0.4,1,1.1,1.3,1.9s0.4,1.8,0.4,2.9c0,1.1-0.1,2-0.3,2.9
		c-0.2,0.8-0.6,1.4-1.1,1.9c-0.5,0.4-1.3,0.7-2.3,0.7h-1.5v7.1H305.1z M308.6,304.9h0.2c0.7,0,1.1-0.2,1.2-0.6s0.2-0.9,0.2-1.7
		c0-0.7-0.1-1.2-0.2-1.6c-0.1-0.4-0.5-0.6-1-0.6h-0.4V304.9z"/>
	<path class="st0" d="M325.9,315.3v-14.6h-2.1v-3.5h7.9v3.5h-2.1v14.6H325.9z"/>
	<path class="st0" d="M346.2,315.5c-1.4,0-2.5-0.4-3.3-1.3c-0.8-0.9-1.1-2.1-1.1-3.8v-8.6c0-1.5,0.4-2.7,1.1-3.5
		c0.8-0.8,1.9-1.2,3.3-1.2s2.6,0.4,3.3,1.2c0.8,0.8,1.1,2,1.1,3.5v8.6c0,1.6-0.4,2.9-1.1,3.8C348.8,315,347.7,315.5,346.2,315.5z
		 M346.3,312.1c0.5,0,0.8-0.5,0.8-1.6v-8.8c0-0.9-0.3-1.3-0.8-1.3c-0.6,0-0.9,0.5-0.9,1.4v8.8c0,0.6,0.1,1,0.2,1.2
		C345.7,312,345.9,312.1,346.3,312.1z"/>
</g>
</svg>
